<svg version="1.1" id="Layer_1" xmlns="http://www.w3.org/2000/svg" xmlns:xlink="http://www.w3.org/1999/xlink" x="0px" y="0px"
	 width="100%" viewBox="0 0 736 736" enable-background="new 0 0 736 736" xml:space="preserve">
<path fill="#EECFBA" opacity="1.000000" stroke="none" 
	d="
M504.000000,737.000000 
	C336.000000,737.000000 168.500000,737.000000 1.000000,737.000000 
	C1.000000,491.666656 1.000000,246.333328 1.000000,1.000000 
	C246.333328,1.000000 491.666656,1.000000 737.000000,1.000000 
	C737.000000,246.333328 737.000000,491.666656 737.000000,737.000000 
	C659.500000,737.000000 582.000000,737.000000 504.000000,737.000000 
M60.878269,432.678894 
	C60.575542,437.598755 59.697826,442.563751 60.079533,447.429932 
	C61.159264,461.194855 65.797539,473.038635 79.270683,479.591827 
	C82.394226,481.111084 85.498230,482.943756 88.086784,485.226807 
	C92.151306,488.811646 96.154602,492.602661 99.468979,496.862518 
	C102.735405,501.060791 101.525726,502.812958 96.151993,503.306824 
	C86.258812,504.216034 77.836227,501.163635 70.593231,494.411438 
	C68.695465,492.642273 66.346603,491.356964 64.204895,489.849457 
	C63.763870,490.273254 63.322845,490.697021 62.881817,491.120819 
	C64.301353,506.867035 73.488098,519.135681 83.325371,532.300232 
	C81.064514,531.753479 80.258156,531.620605 79.495399,531.360046 
	C78.237679,530.930420 76.945847,530.536987 75.776024,529.923218 
	C58.451305,520.832886 43.034351,509.545776 32.697823,492.416138 
	C31.755646,490.854767 30.777308,489.238983 29.486988,487.987396 
	C28.404631,486.937469 26.575527,485.523987 25.563810,485.838318 
	C24.447037,486.185242 23.333822,488.251923 23.163343,489.682098 
	C20.292717,513.763367 27.167868,534.001953 46.616512,549.435364 
	C57.427261,558.014221 68.233658,566.652100 78.428009,575.937561 
	C86.901413,583.655396 90.000229,594.155029 87.308640,605.140564 
	C85.240677,613.580750 80.924568,621.467651 77.644073,629.615051 
	C76.914963,631.425903 76.336342,633.297363 75.801971,634.817871 
	C101.439415,634.817871 126.215469,634.817871 151.918076,634.973022 
	C164.363556,635.034119 176.808975,635.110229 189.254517,635.149841 
	C195.155960,635.168640 201.057632,635.117798 207.606079,635.638672 
	C209.910721,635.657715 212.215393,635.675415 214.520020,635.695984 
	C253.802277,636.046326 293.084686,636.380371 332.366730,636.752747 
	C366.154053,637.073059 399.940491,637.629150 433.728241,637.715454 
	C456.852051,637.774536 479.977966,637.234375 503.100952,636.845337 
	C504.429077,636.822998 505.739441,635.745911 507.934692,635.169556 
	C526.039734,635.483215 544.144226,635.834229 562.250183,636.076294 
	C565.540894,636.120300 568.837463,635.718445 573.028076,635.728027 
	C580.859863,635.737183 588.694580,635.624390 596.521912,635.815063 
	C599.691040,635.892273 601.263428,634.856750 602.258301,631.740967 
	C604.434448,624.925842 607.098328,618.267822 609.498657,611.522766 
	C615.132935,595.689575 624.322815,583.272705 641.215698,578.114868 
	C643.276550,577.485657 645.235107,576.505920 647.214661,575.629089 
	C658.286987,570.724915 668.796570,564.948792 675.972961,554.779541 
	C677.762939,552.243042 678.474243,548.945312 679.681335,545.997437 
	C676.847900,545.404724 674.039490,544.604980 671.176208,544.259766 
	C663.869995,543.378967 657.012756,541.453064 649.942444,536.448425 
	C653.925964,534.441650 657.075195,533.039856 660.043945,531.325439 
	C669.395996,525.924866 679.337036,521.266663 687.856384,514.758606 
	C706.553040,500.475830 717.089172,481.735382 714.883972,457.357330 
	C714.482849,452.923065 713.567627,448.535339 712.889832,444.126129 
	C712.230286,444.118317 711.570679,444.110504 710.911133,444.102722 
	C710.364136,445.673065 709.294006,447.268036 709.366577,448.809204 
	C709.600525,453.777008 706.892700,457.209290 703.368713,459.695862 
	C690.316956,468.905304 677.066895,477.835724 663.807495,486.746216 
	C662.372864,487.710297 660.392883,487.862823 657.956177,488.609161 
	C658.270569,482.395325 661.813416,479.264618 664.724243,475.740814 
	C675.839355,462.284943 687.372131,449.138000 697.839233,435.192841 
	C708.550598,420.922089 708.740356,404.962006 702.185486,388.762146 
	C701.460022,386.969208 699.907288,385.510986 698.738159,383.897522 
	C697.292053,385.445282 696.951843,386.231567 696.944580,387.020935 
	C696.862000,395.965607 692.195618,401.956390 684.204590,404.919800 
	C674.879028,408.378174 665.286194,411.143860 655.728210,413.932037 
	C652.526367,414.866058 649.075500,414.946167 645.738464,415.416595 
	C645.448975,414.908081 645.159424,414.399567 644.869873,413.891052 
	C646.581726,412.410767 648.374451,411.013428 649.991699,409.436157 
	C657.699402,401.918884 664.359314,393.571014 667.956909,383.320435 
	C673.448242,367.674225 673.408264,351.250061 673.835083,334.948975 
	C673.938232,331.010986 672.303528,330.519196 668.774048,332.522797 
	C661.544312,336.626892 654.290894,340.698517 646.927185,344.554382 
	C641.608276,347.339600 641.547485,346.769775 639.058411,341.478638 
	C632.838623,328.256592 626.847351,314.844574 619.458557,302.276489 
	C610.961182,287.822754 601.115234,274.157043 591.727112,260.235321 
	C589.498169,256.929993 587.666748,251.197601 583.072388,252.831024 
	C580.250854,253.834183 578.217712,259.141754 577.255676,262.882996 
	C574.730835,272.701385 573.098999,282.746063 570.851318,292.641479 
	C570.306702,295.038940 568.756775,297.208038 567.669128,299.482147 
	C567.080688,299.318970 566.492249,299.155762 565.903870,298.992584 
	C565.544556,297.798950 564.937927,296.619934 564.866333,295.409302 
	C564.424744,287.937775 563.942505,280.462524 563.782898,272.981934 
	C563.576904,263.321686 563.767273,253.652451 563.509216,243.994507 
	C563.468750,242.479492 561.959290,241.003708 561.129089,239.509750 
	C560.021484,240.782089 558.178833,241.923615 557.925293,243.347961 
	C556.246643,252.780441 550.218811,259.382935 543.916382,265.865173 
	C543.451721,266.343079 543.036499,266.877045 542.531616,267.306610 
	C530.483154,277.559021 525.920715,290.566315 528.062317,306.132477 
	C528.537292,309.585052 528.609192,313.096069 528.803223,316.583679 
	C529.122375,322.319489 528.825256,327.921295 524.963135,332.796417 
	C524.067078,330.876068 523.789185,329.005432 523.759949,327.130920 
	C523.707947,323.801117 524.085327,320.443054 523.778931,317.143646 
	C523.284058,311.816772 520.469055,310.545258 515.990234,313.424347 
	C513.894714,314.771423 511.913025,316.303101 509.932526,317.820038 
	C506.594025,320.377075 504.710815,319.172913 504.082001,315.446289 
	C503.252258,310.528717 502.431549,305.592255 501.992493,300.629822 
	C501.083405,290.354645 501.438293,279.855225 499.431427,269.816223 
	C496.472046,255.012314 487.102997,243.097687 478.802460,230.847519 
	C478.611572,230.565826 477.891693,230.642578 476.840851,230.441727 
	C476.532593,231.889191 476.016602,233.259766 475.982117,234.642349 
	C475.726685,244.887283 472.336243,254.302948 467.687286,263.164398 
	C465.273468,267.765442 461.736938,271.967224 457.997864,275.623566 
	C454.968018,278.586304 453.661865,277.476318 452.746735,273.213318 
	C450.979004,264.978180 448.950745,256.789154 446.670807,248.682159 
	C446.217194,247.069183 444.152344,245.909317 442.830475,244.540482 
	C441.678680,246.205261 440.249176,247.743454 439.422821,249.556564 
	C435.733551,257.651672 432.216461,265.825226 428.173553,275.025543 
	C425.913910,272.586670 424.566528,271.428375 423.577087,270.018829 
	C413.321991,255.409393 413.616730,240.593353 422.769104,225.595474 
	C430.487152,212.947983 438.243622,200.321671 445.770538,187.560623 
	C450.145996,180.142548 451.719635,172.158737 449.645233,163.549835 
	C446.567322,150.776443 441.014496,139.119431 434.304779,127.921806 
	C428.229706,117.783272 420.849884,108.859032 410.533264,102.834480 
	C408.176880,101.458443 405.124542,101.274139 402.392517,100.541344 
	C402.765106,103.314064 402.546692,106.337769 403.601227,108.820885 
	C414.791809,135.171295 402.549713,163.728760 385.857208,177.148361 
	C376.415039,184.739182 365.905334,190.986420 356.097107,198.141251 
	C342.434021,208.108124 329.968384,219.157806 327.579620,237.297592 
	C326.713226,243.876816 326.664551,250.561859 326.174133,257.193542 
	C326.010742,259.402618 325.633392,261.595856 325.198669,265.018311 
	C321.990662,262.991730 319.287994,262.041595 317.736023,260.148224 
	C314.382355,256.056793 311.759033,251.374786 308.545166,247.156708 
	C307.251617,245.458969 305.192627,244.344467 303.481995,242.964523 
	C302.423309,244.889450 301.289520,246.778564 300.346069,248.758392 
	C300.008728,249.466293 300.167267,250.399094 300.038422,251.219650 
	C299.316650,255.816818 298.691498,260.434662 297.759308,264.989349 
	C297.532654,266.096924 296.372437,267.670837 295.464783,267.801361 
	C294.510040,267.938629 292.779266,266.838715 292.371918,265.866821 
	C290.976349,262.537201 289.310211,259.084015 289.023132,255.573624 
	C288.318665,246.959518 288.109192,238.287674 288.092438,229.638275 
	C288.059418,212.608017 287.050049,195.685226 282.939789,179.101318 
	C279.829742,166.552856 275.312866,154.320862 262.882538,148.299393 
	C247.938950,141.060425 232.392105,135.060394 217.047760,128.664749 
	C215.436539,127.993179 213.429947,128.270142 211.606796,128.107025 
	C211.364883,128.578705 211.122971,129.050385 210.881073,129.522079 
	C214.289795,132.768051 217.574493,136.157089 221.127045,139.237152 
	C247.302444,161.931137 248.959915,205.014832 228.098923,229.748947 
	C222.968262,235.832199 218.051697,242.271820 214.143692,249.174332 
	C205.670532,264.140076 206.411011,280.462585 208.448074,296.872040 
	C209.138306,302.432037 209.094955,308.083130 209.386841,313.692627 
	C208.748047,313.758759 208.109253,313.824890 207.470474,313.891022 
	C199.462738,306.793854 195.667175,298.075287 197.193588,287.029175 
	C197.828217,282.436584 198.054153,277.733887 197.918121,273.097321 
	C197.147491,246.832581 188.653763,222.873123 175.748718,200.287155 
	C173.603287,196.532288 171.415619,192.780304 168.938065,189.243759 
	C167.235870,186.813950 164.333618,186.524490 163.625183,189.603745 
	C162.156296,195.988510 160.854385,202.593430 160.908386,209.096008 
	C160.963043,215.678497 163.070053,222.215240 163.695297,228.827133 
	C165.512527,248.044708 163.139496,266.367310 151.374863,282.537079 
	C141.701843,295.832123 135.774170,310.725952 132.808548,326.856689 
	C132.200958,330.161530 131.338821,333.419556 130.594040,336.699158 
	C130.155151,336.696411 129.716263,336.693665 129.277390,336.690918 
	C127.174858,327.377441 124.787704,318.117523 123.022240,308.740570 
	C117.331421,278.514832 98.993851,260.660797 69.563248,253.557205 
	C68.044090,253.190536 66.243141,253.991302 64.573387,254.248520 
	C65.153038,255.703842 65.445732,257.378845 66.362328,258.576233 
	C70.196625,263.585175 74.592079,268.198700 78.107155,273.412048 
	C94.474739,297.687531 101.543159,323.619385 91.432541,352.428375 
	C88.739563,360.101654 86.283684,367.858124 83.190796,376.117126 
	C81.006294,376.530182 78.397423,377.886078 76.735519,377.138031 
	C74.163162,375.980194 72.324089,373.278076 70.018929,371.423645 
	C65.539642,367.820160 61.368465,363.493408 56.307159,361.038055 
	C49.670319,357.818390 44.230965,362.434113 45.149960,369.535309 
	C46.707550,381.571106 46.707558,381.571136 35.586647,386.117889 
	C30.743486,388.098053 29.564568,391.647766 32.578632,396.015961 
	C34.171253,398.324066 36.131027,400.406769 38.097889,402.422607 
	C41.651852,406.065033 42.886307,409.763702 39.600773,414.355316 
	C37.974823,416.627563 36.388210,419.238312 35.868462,421.907196 
	C35.314911,424.749603 34.958488,428.802216 36.513199,430.557068 
	C38.099819,432.347961 42.178448,432.668549 45.047642,432.394257 
	C48.441360,432.069824 51.665943,430.251526 55.044041,429.398315 
	C57.592148,428.754730 60.513813,428.026520 60.878269,432.678894 
z"/>
<path fill="#DF3B46" opacity="1.000000" stroke="none" 
	d="
M507.058105,635.159729 
	C505.739441,635.745911 504.429077,636.822998 503.100952,636.845337 
	C479.977966,637.234375 456.852051,637.774536 433.728241,637.715454 
	C399.940491,637.629150 366.154053,637.073059 332.366730,636.752747 
	C293.084686,636.380371 253.802277,636.046326 214.520020,635.695984 
	C212.215393,635.675415 209.910721,635.657715 207.448257,634.996582 
	C208.111252,629.644165 208.765594,624.897644 209.784149,620.230530 
	C212.818695,606.325928 210.669418,593.374390 201.941132,582.089966 
	C194.354584,572.281616 186.600922,562.488525 177.927505,553.665405 
	C168.225098,543.795410 157.404007,535.025085 147.010391,525.440796 
	C144.951569,522.933655 142.942596,520.770630 140.954727,518.588318 
	C137.789398,515.113342 134.369202,511.828979 131.543854,508.095428 
	C127.270218,502.448090 124.042946,495.894470 119.244080,490.784241 
	C110.725998,481.713409 101.384361,473.413422 92.340508,464.840271 
	C89.227570,461.889343 86.136360,458.877014 82.750999,456.260468 
	C76.649727,451.544861 71.402122,446.307617 68.339882,438.993347 
	C67.238564,436.362793 64.840485,434.275177 62.968307,431.556458 
	C62.506096,425.913452 59.056107,425.213043 54.919178,426.137360 
	C52.100178,426.767181 49.466255,428.391388 46.641060,428.778015 
	C44.120857,429.122894 41.451736,428.379608 38.848328,428.116516 
	C39.114906,425.974091 39.110924,423.750244 39.724567,421.712311 
	C40.331352,419.697083 41.379032,417.748169 42.552639,415.982422 
	C46.252270,410.416199 45.727882,405.457794 40.782154,400.948730 
	C39.311569,399.607971 37.715031,398.368347 36.436703,396.861359 
	C33.656929,393.584381 34.522247,390.441650 38.462410,388.926239 
	C48.808308,384.947296 49.252293,384.318176 48.957527,373.078125 
	C48.914738,371.446564 48.070141,369.755585 48.335106,368.219513 
	C48.588085,366.752899 50.003979,364.196167 50.565895,364.285095 
	C53.958717,364.821930 57.817238,365.196777 60.460495,367.098419 
	C65.629433,370.817200 70.003716,375.620209 74.891937,379.755707 
	C79.050919,383.274261 82.699837,382.095612 84.339561,376.923218 
	C86.378098,375.263885 88.587311,374.061371 89.756119,372.204132 
	C92.265617,368.216461 96.130424,368.161560 99.784439,368.544556 
	C105.849670,369.180206 108.830086,377.669434 106.083817,384.495728 
	C103.474297,390.982056 99.793823,397.347321 101.617081,404.944366 
	C101.277710,405.829041 100.898445,407.088715 101.232841,407.321014 
	C105.070251,409.986633 109.016106,412.496094 113.001617,415.351929 
	C113.695412,416.124969 114.320663,416.593231 115.008255,417.394287 
	C117.374924,420.159790 119.679253,422.592407 121.990761,425.011169 
	C121.997932,424.997253 121.971504,425.015747 122.024307,425.353668 
	C124.369598,427.826233 126.662094,429.960907 129.066910,432.307190 
	C129.393967,432.773468 129.664536,432.934113 130.152588,433.294189 
	C134.185440,437.300568 138.038864,441.032288 141.938095,444.715546 
	C143.196701,445.904419 144.575775,446.965851 145.942963,448.043823 
	C145.986160,448.002106 145.913605,448.097229 145.978302,448.426361 
	C147.656708,450.247406 149.270386,451.739349 150.939835,453.531403 
	C151.656769,454.565521 152.317947,455.299500 153.028442,456.377014 
	C156.510376,461.981323 159.832870,467.319519 163.443619,472.455078 
	C164.506897,473.967346 166.385910,474.906097 167.945557,476.053833 
	C168.000000,476.000000 167.892181,476.109100 167.930542,476.454376 
	C172.612061,481.902344 177.255234,487.005005 181.945892,492.091797 
	C181.993393,492.075928 181.893539,492.068542 181.910522,492.421082 
	C182.919037,493.882904 183.910583,494.992126 184.942673,496.090088 
	C184.983215,496.078827 184.902817,496.054047 184.925629,496.350220 
	C185.302277,497.087952 185.656113,497.529541 186.004974,497.987518 
	C185.999985,498.003937 186.031464,497.990051 186.070892,498.331665 
	C192.295364,506.682617 200.988083,511.059692 209.956680,515.057068 
	C210.003113,515.009705 209.900116,515.092285 209.947449,515.436523 
	C215.396576,525.632751 222.286743,533.276428 234.449219,534.703857 
	C241.847458,535.572083 246.693451,532.428406 246.946991,525.071838 
	C247.101837,520.578674 247.744003,515.904297 246.780869,511.623199 
	C245.692001,506.783356 243.388351,502.106049 240.963806,497.716644 
	C239.364426,494.821075 236.553314,494.337982 233.178482,496.074524 
	C230.787109,497.304962 227.785187,497.348846 225.026337,497.935547 
	C224.996887,497.948669 225.060440,497.959106 224.955261,497.738159 
	C224.639954,497.246063 224.365860,497.081635 223.830536,496.970703 
	C223.633301,496.917480 223.226181,496.883240 223.151978,496.482330 
	C221.182800,491.276855 221.809143,486.847809 224.139557,482.198181 
	C225.343124,479.796844 226.081161,476.068054 225.049088,473.868195 
	C222.902420,469.292694 219.848541,464.959961 216.422119,461.208191 
	C210.439468,454.657501 211.118057,448.850067 219.280273,444.921631 
	C221.737885,443.738800 224.673889,443.228363 227.430405,443.060211 
	C232.072632,442.776978 236.761856,442.779907 241.403717,443.083923 
	C249.219452,443.595734 253.525467,439.018127 256.999908,432.997742 
	C257.000000,433.000000 256.995697,433.000854 257.296814,432.858337 
	C260.067902,429.813812 262.537933,426.911804 265.003967,424.004883 
	C265.000000,424.000000 265.009277,424.005066 265.253754,423.839264 
	C265.698242,423.134735 265.898224,422.596008 266.062286,422.074341 
	C266.026367,422.091370 266.103943,422.108734 266.437836,422.057861 
	C268.254822,420.373932 269.737915,418.740845 271.419769,417.094208 
	C271.618530,417.080688 272.004120,416.980133 272.236816,416.894928 
	C272.761780,416.618591 272.947174,416.352905 273.010986,416.011047 
	C272.996246,416.009521 273.021149,416.029541 273.366913,415.965576 
	C278.405518,413.450134 283.130310,411.057465 287.780609,408.527740 
	C291.236511,406.647766 293.836090,404.556244 293.410461,399.659088 
	C293.193237,397.160095 295.644073,394.429169 297.051697,392.124176 
	C301.268402,399.070831 305.897949,405.049408 313.945251,407.107483 
	C326.566772,410.335480 339.175354,409.212982 351.838776,407.393921 
	C351.729614,414.151398 352.876251,420.337158 357.007355,425.093750 
	C360.070526,428.620789 364.418488,431.031921 367.803223,434.123505 
	C349.627869,437.783142 331.619690,437.237457 313.685638,436.720032 
	C306.566406,436.514618 301.342682,438.574402 297.597748,444.242950 
	C296.271637,446.250244 294.854706,449.467896 295.604462,451.227600 
	C296.392731,453.077820 299.666321,454.749420 301.958527,454.899231 
	C307.065765,455.233093 312.235474,454.456177 317.384521,454.335480 
	C329.483368,454.051880 341.585663,453.696899 353.685394,453.735107 
	C363.490112,453.766083 373.292297,454.360016 383.097321,454.643707 
	C390.548828,454.859283 398.012939,454.793274 405.453766,455.186951 
	C416.233368,455.757355 426.990906,456.751068 437.771454,457.293365 
	C440.704437,457.440979 443.811615,457.021729 446.619598,456.153473 
	C452.421356,454.359650 454.134308,447.948303 449.565216,444.010071 
	C446.837433,441.658875 442.955597,439.843597 439.394135,439.407410 
	C426.727753,437.856079 413.981659,436.933197 401.255157,435.902771 
	C392.153259,435.165771 383.034485,434.637512 374.167053,433.752258 
	C380.020660,432.372345 383.036407,428.532562 385.027496,423.523651 
	C388.666473,414.369385 387.129181,405.430939 384.421967,396.635529 
	C393.985443,400.784485 403.645782,401.974762 413.459442,400.447144 
	C423.799561,398.837585 432.756073,394.553741 438.398132,384.811951 
	C441.511444,386.900116 444.252411,388.955414 447.012817,390.984283 
	C454.875946,396.763519 462.917206,402.320770 470.507904,408.437500 
	C472.695068,410.199921 474.726257,413.507019 474.855316,416.200470 
	C475.155029,422.456482 478.201782,426.115173 483.548859,428.247223 
	C489.716248,430.706360 496.021790,432.816528 502.226868,435.184296 
	C512.941528,439.272888 515.016724,445.078857 508.926422,454.613556 
	C505.956818,459.262665 506.703369,463.492676 509.525757,467.615509 
	C511.622986,470.679077 514.830933,471.290192 516.993835,468.229309 
	C521.347595,462.067871 525.081360,455.468353 529.040161,449.024414 
	C529.009399,448.999237 529.047302,449.069092 529.391541,449.008484 
	C532.971436,446.941406 536.113770,444.760345 539.464722,442.969727 
	C544.411621,440.326355 547.208313,436.258362 549.485596,431.187286 
	C551.744995,426.156128 555.047974,421.514374 558.380432,417.066833 
	C561.648743,412.704926 565.775085,408.990234 569.093872,404.661072 
	C577.039185,394.296692 576.936890,394.218292 568.074402,384.699829 
	C562.089172,378.271576 560.088074,367.212128 563.562500,360.642578 
	C565.264282,357.424744 567.363647,356.083740 570.721191,358.263367 
	C574.156860,360.493683 577.566650,362.763733 580.993896,365.008575 
	C581.000000,365.000732 580.985962,365.011902 581.147949,365.329498 
	C587.335571,371.691345 595.479553,369.679840 600.009888,361.015991 
	C600.000000,361.006104 600.020630,361.016174 600.248413,360.922028 
	C600.762573,360.631866 600.941406,360.364014 601.010620,360.012665 
	C601.008545,360.000977 601.029236,360.016052 601.356201,359.961670 
	C602.556702,358.990936 603.430115,358.074585 604.590332,357.154358 
	C605.254700,357.091339 605.632202,357.032135 606.444702,356.980713 
	C610.540833,356.620300 613.938904,356.847961 616.830200,359.715454 
	C617.710815,360.588867 619.532715,360.513184 621.366333,360.909790 
	C624.106812,360.716400 626.477478,360.767609 628.686584,360.195099 
	C633.155945,359.036774 637.484192,357.316925 641.969910,356.243469 
	C646.842163,355.077576 648.653870,356.844696 649.057007,361.557922 
	C649.473877,366.432190 648.006348,370.088318 644.297668,373.367279 
	C639.642639,377.482910 639.573669,378.576721 644.123169,382.473450 
	C650.839661,388.226318 648.150146,393.087128 642.532776,396.212402 
	C640.530579,397.326355 638.389404,398.579010 636.189575,398.882050 
	C626.709839,400.187744 618.601013,404.353394 611.284607,410.244537 
	C609.832886,411.413452 608.345276,412.978485 607.732788,414.671448 
	C605.317627,421.346588 603.244629,428.145508 600.783813,435.121094 
	C593.859009,442.515167 587.820312,450.444458 580.335266,456.620819 
	C574.233032,461.656158 570.241394,467.772949 565.831970,473.984039 
	C557.033264,486.377686 550.800659,500.600433 538.931030,510.887970 
	C535.771851,513.626038 533.325378,518.345581 532.630676,522.502747 
	C531.520508,529.146057 528.760681,534.505310 525.134033,540.008972 
	C519.119568,549.136536 513.746765,558.715881 508.585052,568.362427 
	C506.424255,572.400757 505.170471,577.017578 504.060730,581.508850 
	C499.573395,599.668884 503.665527,617.406555 507.058105,635.159729 
z"/>
<path fill="#FC6923" opacity="1.000000" stroke="none" 
	d="
M101.908669,404.842163 
	C99.793823,397.347321 103.474297,390.982056 106.083817,384.495728 
	C108.830086,377.669434 105.849670,369.180206 99.784439,368.544556 
	C96.130424,368.161560 92.265617,368.216461 89.756119,372.204132 
	C88.587311,374.061371 86.378098,375.263885 84.278725,376.541931 
	C83.850960,376.072632 83.784950,375.824524 83.718948,375.576416 
	C86.283684,367.858124 88.739563,360.101654 91.432541,352.428375 
	C101.543159,323.619385 94.474739,297.687531 78.107155,273.412048 
	C74.592079,268.198700 70.196625,263.585175 66.362328,258.576233 
	C65.445732,257.378845 65.153038,255.703842 64.573387,254.248535 
	C66.243141,253.991302 68.044090,253.190536 69.563248,253.557205 
	C98.993851,260.660797 117.331421,278.514832 123.022240,308.740570 
	C124.787704,318.117523 127.174858,327.377441 129.277390,336.690918 
	C129.716263,336.693665 130.155151,336.696411 130.594040,336.699158 
	C131.338821,333.419556 132.200958,330.161530 132.808548,326.856689 
	C135.774170,310.725952 141.701843,295.832123 151.374863,282.537079 
	C163.139496,266.367310 165.512527,248.044708 163.695297,228.827133 
	C163.070053,222.215240 160.963043,215.678497 160.908386,209.096008 
	C160.854385,202.593430 162.156296,195.988510 163.625183,189.603745 
	C164.333618,186.524490 167.235870,186.813950 168.938065,189.243759 
	C171.415619,192.780304 173.603287,196.532288 175.748718,200.287155 
	C188.653763,222.873123 197.147491,246.832581 197.918121,273.097321 
	C198.054153,277.733887 197.828217,282.436584 197.193588,287.029175 
	C195.667175,298.075287 199.462738,306.793854 207.470474,313.891022 
	C208.109253,313.824890 208.748047,313.758759 209.386841,313.692627 
	C209.094955,308.083130 209.138306,302.432037 208.448074,296.872040 
	C206.411011,280.462585 205.670532,264.140076 214.143692,249.174332 
	C218.051697,242.271820 222.968262,235.832199 228.098923,229.748947 
	C248.959915,205.014832 247.302444,161.931137 221.127045,139.237152 
	C217.574493,136.157089 214.289795,132.768051 210.881073,129.522079 
	C211.122971,129.050385 211.364883,128.578705 211.606796,128.107025 
	C213.429947,128.270142 215.436539,127.993179 217.047760,128.664749 
	C232.392105,135.060394 247.938950,141.060425 262.882538,148.299393 
	C275.312866,154.320862 279.829742,166.552856 282.939789,179.101318 
	C287.050049,195.685226 288.059418,212.608017 288.092438,229.638275 
	C288.109192,238.287674 288.318665,246.959518 289.023132,255.573624 
	C289.310211,259.084015 290.976349,262.537201 292.371918,265.866821 
	C292.779266,266.838715 294.510040,267.938629 295.464783,267.801361 
	C296.372437,267.670837 297.532654,266.096924 297.759308,264.989349 
	C298.691498,260.434662 299.316650,255.816818 300.038422,251.219650 
	C300.167267,250.399094 300.008728,249.466293 300.346069,248.758392 
	C301.289520,246.778564 302.423309,244.889450 303.481995,242.964523 
	C305.192627,244.344467 307.251617,245.458969 308.545166,247.156708 
	C311.759033,251.374786 314.382355,256.056793 317.736023,260.148224 
	C319.287994,262.041595 321.990662,262.991730 325.198669,265.018311 
	C325.633392,261.595856 326.010742,259.402618 326.174133,257.193542 
	C326.664551,250.561859 326.713226,243.876816 327.579620,237.297592 
	C329.968384,219.157806 342.434021,208.108124 356.097107,198.141251 
	C365.905334,190.986420 376.415039,184.739182 385.857208,177.148361 
	C402.549713,163.728760 414.791809,135.171295 403.601227,108.820885 
	C402.546692,106.337769 402.765106,103.314064 402.392517,100.541344 
	C405.124542,101.274139 408.176880,101.458443 410.533264,102.834480 
	C420.849884,108.859032 428.229706,117.783272 434.304779,127.921806 
	C441.014496,139.119431 446.567322,150.776443 449.645233,163.549835 
	C451.719635,172.158737 450.145996,180.142548 445.770538,187.560623 
	C438.243622,200.321671 430.487152,212.947983 422.769104,225.595474 
	C413.616730,240.593353 413.321991,255.409393 423.577087,270.018829 
	C424.566528,271.428375 425.913910,272.586670 428.173553,275.025543 
	C432.216461,265.825226 435.733551,257.651672 439.422821,249.556564 
	C440.249176,247.743454 441.678680,246.205261 442.830475,244.540497 
	C444.152344,245.909317 446.217194,247.069183 446.670807,248.682159 
	C448.950745,256.789154 450.979004,264.978180 452.746735,273.213318 
	C453.661865,277.476318 454.968018,278.586304 457.997864,275.623566 
	C461.736938,271.967224 465.273468,267.765442 467.687286,263.164398 
	C472.336243,254.302948 475.726685,244.887283 475.982117,234.642349 
	C476.016602,233.259766 476.532593,231.889191 476.840851,230.441727 
	C477.891693,230.642578 478.611572,230.565826 478.802460,230.847519 
	C487.102997,243.097687 496.472046,255.012314 499.431427,269.816223 
	C501.438293,279.855225 501.083405,290.354645 501.992493,300.629822 
	C502.431549,305.592255 503.252258,310.528717 504.082001,315.446289 
	C504.710815,319.172913 506.594025,320.377075 509.932526,317.820038 
	C511.913025,316.303101 513.894714,314.771423 515.990234,313.424347 
	C520.469055,310.545258 523.284058,311.816772 523.778931,317.143646 
	C524.085327,320.443054 523.707947,323.801117 523.759949,327.130920 
	C523.789185,329.005432 524.067078,330.876068 524.963135,332.796417 
	C528.825256,327.921295 529.122375,322.319489 528.803223,316.583679 
	C528.609192,313.096069 528.537292,309.585052 528.062317,306.132477 
	C525.920715,290.566315 530.483154,277.559021 542.531616,267.306610 
	C543.036499,266.877045 543.451721,266.343079 543.916382,265.865173 
	C550.218811,259.382935 556.246643,252.780441 557.925293,243.347961 
	C558.178833,241.923615 560.021484,240.782089 561.129089,239.509766 
	C561.959290,241.003708 563.468750,242.479492 563.509216,243.994507 
	C563.767273,253.652451 563.576904,263.321686 563.782898,272.981934 
	C563.942505,280.462524 564.424744,287.937775 564.866333,295.409302 
	C564.937927,296.619934 565.544556,297.798950 565.903870,298.992584 
	C566.492249,299.155762 567.080688,299.318970 567.669128,299.482147 
	C568.756775,297.208038 570.306702,295.038940 570.851318,292.641479 
	C573.098999,282.746063 574.730835,272.701385 577.255676,262.882996 
	C578.217712,259.141754 580.250854,253.834183 583.072388,252.831024 
	C587.666748,251.197601 589.498169,256.929993 591.727112,260.235321 
	C601.115234,274.157043 610.961182,287.822754 619.458557,302.276489 
	C626.847351,314.844574 632.838623,328.256592 639.058411,341.478638 
	C641.547485,346.769775 641.608276,347.339600 646.927185,344.554382 
	C654.290894,340.698517 661.544312,336.626892 668.774048,332.522797 
	C672.303528,330.519196 673.938232,331.010986 673.835083,334.948975 
	C673.408264,351.250061 673.448242,367.674225 667.956909,383.320435 
	C664.359314,393.571014 657.699402,401.918884 649.991699,409.436157 
	C648.374451,411.013428 646.581726,412.410767 644.869873,413.891052 
	C645.159424,414.399567 645.448975,414.908081 645.738464,415.416595 
	C649.075500,414.946167 652.526367,414.866058 655.728210,413.932037 
	C665.286194,411.143860 674.879028,408.378174 684.204590,404.919800 
	C692.195618,401.956390 696.862000,395.965607 696.944580,387.020935 
	C696.951843,386.231567 697.292053,385.445282 698.738159,383.897522 
	C699.907288,385.510986 701.460022,386.969208 702.185486,388.762146 
	C708.740356,404.962006 708.550598,420.922089 697.839233,435.192841 
	C687.372131,449.138000 675.839355,462.284943 664.724243,475.740814 
	C661.813416,479.264618 658.270569,482.395325 657.956177,488.609161 
	C660.392883,487.862823 662.372864,487.710297 663.807495,486.746216 
	C677.066895,477.835724 690.316956,468.905304 703.368713,459.695862 
	C706.892700,457.209290 709.600525,453.777008 709.366577,448.809204 
	C709.294006,447.268036 710.364136,445.673065 710.911133,444.102722 
	C711.570679,444.110504 712.230286,444.118317 712.889832,444.126129 
	C713.567627,448.535339 714.482849,452.923065 714.883972,457.357330 
	C717.089172,481.735382 706.553040,500.475830 687.856384,514.758606 
	C679.337036,521.266663 669.395996,525.924866 660.043945,531.325439 
	C657.075195,533.039856 653.925964,534.441650 649.942444,536.448425 
	C657.012756,541.453064 663.869995,543.378967 671.176208,544.259766 
	C674.039490,544.604980 676.847900,545.404724 679.681335,545.997437 
	C678.474243,548.945312 677.762939,552.243042 675.972961,554.779541 
	C668.796570,564.948792 658.286987,570.724915 647.214661,575.629089 
	C645.235107,576.505920 643.276550,577.485657 641.215698,578.114868 
	C624.322815,583.272705 615.132935,595.689575 609.498657,611.522766 
	C607.098328,618.267822 604.434448,624.925842 602.258301,631.740967 
	C601.263428,634.856750 599.691040,635.892273 596.521912,635.815063 
	C588.694580,635.624390 580.859863,635.737183 572.555786,635.243286 
	C572.728333,627.506042 573.217224,620.235413 574.055725,613.005371 
	C575.199829,603.141174 578.671387,594.825623 588.717285,590.503845 
	C592.776794,588.757446 596.372009,585.882019 600.073120,583.365295 
	C604.861389,580.109375 609.130371,575.700012 614.348389,573.537476 
	C631.342651,566.494446 633.635864,551.796753 634.971985,536.377747 
	C635.057495,535.391113 634.460999,533.577393 633.913208,533.465759 
	C632.814453,533.241760 631.321472,533.628845 630.360352,534.295776 
	C627.231934,536.466431 624.417908,539.109924 621.212585,541.145874 
	C614.772034,545.236633 607.808594,547.672546 599.974426,547.060120 
	C595.709167,546.726746 593.596436,544.929443 593.965576,540.417542 
	C594.432983,534.705505 597.983887,530.942383 602.194275,528.002747 
	C618.614014,516.538635 630.399292,501.052948 640.736694,484.290405 
	C641.564636,482.947876 641.242065,480.895844 641.454102,479.173462 
	C639.805542,479.194824 638.016846,478.804230 636.532898,479.309265 
	C630.298767,481.430939 624.155823,483.820465 617.538147,486.275696 
	C625.278320,478.783447 632.855591,472.384430 639.291626,464.991913 
	C648.141296,454.827087 654.640320,443.291382 653.986816,429.077942 
	C653.916138,427.541565 653.161194,426.036652 652.723633,424.517151 
	C651.133179,425.195679 649.338257,425.598450 647.987366,426.600098 
	C641.996155,431.042328 636.385193,436.046570 630.145569,440.089539 
	C624.777954,443.567505 618.670227,445.640533 612.338440,441.935883 
	C608.511414,439.696777 604.805176,437.251251 601.044678,434.898499 
	C603.244629,428.145508 605.317627,421.346588 607.732788,414.671448 
	C608.345276,412.978485 609.832886,411.413452 611.284607,410.244537 
	C618.601013,404.353394 626.709839,400.187744 636.189575,398.882050 
	C638.389404,398.579010 640.530579,397.326355 642.532776,396.212402 
	C648.150146,393.087128 650.839661,388.226318 644.123169,382.473450 
	C639.573669,378.576721 639.642639,377.482910 644.297668,373.367279 
	C648.006348,370.088318 649.473877,366.432190 649.057007,361.557922 
	C648.653870,356.844696 646.842163,355.077576 641.969910,356.243469 
	C637.484192,357.316925 633.155945,359.036774 628.686584,360.195099 
	C626.477478,360.767609 624.106812,360.716400 621.346680,360.587494 
	C620.270874,358.831085 619.657471,357.434570 619.042847,355.601990 
	C618.353455,350.082611 617.895325,344.954987 616.925293,339.926025 
	C615.330261,331.656830 614.354004,323.089752 611.390747,315.305389 
	C607.101196,304.037170 596.731079,297.539093 588.080322,289.833191 
	C587.414795,289.240417 585.606018,289.079987 584.948547,289.562775 
	C584.256042,290.071320 583.933167,291.655701 584.099915,292.662170 
	C584.803833,296.911621 585.946106,301.092072 586.572388,305.350067 
	C588.550903,318.802917 583.243896,334.612030 567.007751,337.316040 
	C565.000488,337.650299 561.486938,336.323395 560.582092,334.700775 
	C554.497986,323.790039 549.697083,312.363892 548.920471,299.612152 
	C548.745300,296.735992 547.789307,293.907379 547.192810,291.056854 
	C543.555054,297.083496 540.712097,302.889954 539.022095,309.014618 
	C537.838013,313.305481 537.808228,318.048492 538.000427,322.558136 
	C538.423645,332.488251 539.614868,342.391388 539.848572,352.320679 
	C539.929443,355.756622 538.405945,359.359680 537.063477,362.662079 
	C535.808777,365.748352 533.407349,365.682770 531.063538,363.539124 
	C530.080933,362.640350 529.096313,361.721405 528.254089,360.695496 
	C525.272034,357.063080 522.709167,357.384369 519.863281,361.040375 
	C515.789612,366.273590 511.512634,371.359650 507.116486,376.326172 
	C504.777893,378.968170 502.732422,378.412048 501.847900,374.897858 
	C501.446198,373.302032 500.772858,371.545197 501.083710,370.039093 
	C502.413757,363.595123 503.787720,357.132874 505.705170,350.847992 
	C506.808746,347.230652 509.195709,344.021484 510.559204,340.458008 
	C511.055237,339.161621 510.780701,336.831543 509.891663,335.970032 
	C509.135803,335.237610 506.771545,335.484039 505.506348,336.097046 
	C502.702057,337.455719 500.042145,339.179199 497.504822,341.005951 
	C493.959381,343.558563 490.579498,346.341095 486.693970,349.363495 
	C487.267548,336.467682 488.926392,324.447784 488.015991,312.625732 
	C487.081116,300.486237 481.139954,289.842468 471.743408,279.984131 
	C471.350555,282.489075 470.935242,283.723816 471.001740,284.932068 
	C471.670166,297.081268 466.632935,307.180054 459.612976,316.516022 
	C458.456940,318.053467 456.762604,319.419250 455.021790,320.231964 
	C452.049713,321.619476 449.085083,322.112885 448.838501,317.262268 
	C448.636749,313.293976 448.489380,309.305878 447.937408,305.380066 
	C447.686493,303.595520 446.515991,301.940308 445.762604,300.226410 
	C444.199615,300.951965 442.290314,301.324310 441.130798,302.461334 
	C434.433228,309.028961 426.572723,312.648712 417.638489,308.814178 
	C410.432526,305.721375 403.608643,301.328156 397.389740,296.511810 
	C394.078491,293.947357 391.910034,289.487396 390.101440,285.487091 
	C385.888184,276.168030 384.844177,266.315613 387.040253,256.264771 
	C389.229156,246.246704 391.020905,236.088974 394.054535,226.324219 
	C396.742371,217.672516 401.011322,209.520874 404.303925,201.040421 
	C404.932739,199.420792 404.264618,197.297592 404.194824,195.406708 
	C402.183136,195.729202 399.775024,195.455521 398.231506,196.481979 
	C392.848145,200.061966 387.798676,204.139709 382.558167,207.939804 
	C373.585297,214.446381 366.406677,222.443542 363.483459,233.303650 
	C361.165497,241.914948 359.775177,250.776596 357.990814,259.530701 
	C355.583374,271.341705 354.101379,283.284973 348.941437,294.509644 
	C342.820892,307.823883 329.873718,308.362091 320.718292,302.792480 
	C318.766113,301.604889 316.469391,300.882935 314.241791,300.274872 
	C311.593292,299.551910 309.906586,300.724060 310.088715,303.567749 
	C310.214233,305.527710 311.157227,307.453156 311.172028,309.398315 
	C311.196014,312.549927 311.896088,316.979675 310.194122,318.499359 
	C308.500519,320.011597 303.944733,319.333527 301.087036,318.340668 
	C291.711884,315.083466 286.867493,307.258789 283.091034,298.719727 
	C275.307587,281.120422 267.700439,263.442932 259.866425,245.866425 
	C258.784149,243.438156 256.823517,241.401367 255.269516,239.183350 
	C253.950912,241.620193 252.427368,243.970123 251.350571,246.509506 
	C247.482300,255.631760 243.792267,264.829376 239.983017,273.976929 
	C236.151947,283.176880 235.175156,292.104401 241.438202,300.842957 
	C244.032867,304.463165 246.311798,308.406677 248.100204,312.481445 
	C250.017731,316.850342 251.189453,321.546600 252.829071,326.533081 
	C244.347031,327.554443 239.923401,318.734894 232.247040,321.617279 
	C232.364792,322.572754 232.414307,323.374207 232.567291,324.155396 
	C234.681335,334.949982 235.855438,345.726593 234.045166,356.761230 
	C232.064224,368.836121 226.655182,374.377625 216.861328,372.865387 
	C210.212448,371.838776 204.056870,368.932129 201.033112,362.743134 
	C195.941986,352.322540 191.601028,341.528442 187.127960,330.814880 
	C182.594635,319.956970 178.436691,308.940704 173.808014,298.124939 
	C171.628098,293.031158 167.625977,292.523987 164.787689,296.904449 
	C155.836990,310.718506 149.388062,325.594513 148.101944,342.183289 
	C146.827377,358.623505 150.151962,374.545258 154.571274,390.292175 
	C156.894058,398.568695 159.475082,406.845642 160.818741,415.300537 
	C161.855042,421.821320 158.589951,424.024933 151.983780,422.796387 
	C151.496918,422.705811 151.028992,422.503174 150.558929,422.334137 
	C137.363968,417.588959 124.169853,412.841431 110.657898,407.924103 
	C107.529678,406.783356 104.719177,405.812744 101.908669,404.842163 
z"/>
<path fill="#FE9E2C" opacity="1.000000" stroke="none" 
	d="
M600.783813,435.121094 
	C604.805176,437.251251 608.511414,439.696777 612.338440,441.935883 
	C618.670227,445.640533 624.777954,443.567505 630.145569,440.089539 
	C636.385193,436.046570 641.996155,431.042328 647.987366,426.600098 
	C649.338257,425.598450 651.133179,425.195679 652.723633,424.517151 
	C653.161194,426.036652 653.916138,427.541565 653.986816,429.077942 
	C654.640320,443.291382 648.141296,454.827087 639.291626,464.991913 
	C632.855591,472.384430 625.278320,478.783447 617.538147,486.275696 
	C624.155823,483.820465 630.298767,481.430939 636.532898,479.309265 
	C638.016846,478.804230 639.805542,479.194824 641.454102,479.173462 
	C641.242065,480.895844 641.564636,482.947876 640.736694,484.290405 
	C630.399292,501.052948 618.614014,516.538635 602.194275,528.002747 
	C597.983887,530.942383 594.432983,534.705505 593.965576,540.417542 
	C593.596436,544.929443 595.709167,546.726746 599.974426,547.060120 
	C607.808594,547.672546 614.772034,545.236633 621.212585,541.145874 
	C624.417908,539.109924 627.231934,536.466431 630.360352,534.295776 
	C631.321472,533.628845 632.814453,533.241760 633.913208,533.465759 
	C634.460999,533.577393 635.057495,535.391113 634.971985,536.377747 
	C633.635864,551.796753 631.342651,566.494446 614.348389,573.537476 
	C609.130371,575.700012 604.861389,580.109375 600.073120,583.365295 
	C596.372009,585.882019 592.776794,588.757446 588.717285,590.503845 
	C578.671387,594.825623 575.199829,603.141174 574.055725,613.005371 
	C573.217224,620.235413 572.728333,627.506042 572.107422,635.140503 
	C568.837463,635.718445 565.540894,636.120300 562.250183,636.076294 
	C544.144226,635.834229 526.039734,635.483215 507.496399,635.164673 
	C503.665527,617.406555 499.573395,599.668884 504.060730,581.508850 
	C505.170471,577.017578 506.424255,572.400757 508.585052,568.362427 
	C513.746765,558.715881 519.119568,549.136536 525.134033,540.008972 
	C528.760681,534.505310 531.520508,529.146057 532.630676,522.502747 
	C533.325378,518.345581 535.771851,513.626038 538.931030,510.887970 
	C550.800659,500.600433 557.033264,486.377686 565.831970,473.984039 
	C570.241394,467.772949 574.233032,461.656158 580.335266,456.620819 
	C587.820312,450.444458 593.859009,442.515167 600.783813,435.121094 
z"/>
<path fill="#FC6823" opacity="1.000000" stroke="none" 
	d="
M63.034203,431.939758 
	C64.840485,434.275177 67.238564,436.362793 68.339882,438.993347 
	C71.402122,446.307617 76.649727,451.544861 82.750999,456.260468 
	C86.136360,458.877014 89.227570,461.889343 92.340508,464.840271 
	C101.384361,473.413422 110.725998,481.713409 119.244080,490.784241 
	C124.042946,495.894470 127.270218,502.448090 131.543854,508.095428 
	C134.369202,511.828979 137.789398,515.113342 140.954727,518.588318 
	C142.942596,520.770630 144.951569,522.933655 146.588104,525.514771 
	C136.865494,528.351990 127.598442,528.384766 118.439804,524.935974 
	C116.578079,524.234924 114.676514,523.415161 112.734596,523.212341 
	C110.645622,522.994324 108.487564,523.437866 106.359650,523.592773 
	C107.274277,525.921631 107.584366,528.886353 109.227692,530.448792 
	C112.797592,533.843018 117.138123,536.411011 120.979439,539.542603 
	C122.685532,540.933472 123.945602,542.871521 125.408127,544.561157 
	C125.136353,545.024292 124.864586,545.487427 124.592812,545.950562 
	C121.184235,546.301575 117.782707,546.764832 114.365555,546.979492 
	C107.922760,547.384216 101.452904,547.465332 95.037109,548.108032 
	C93.638565,548.248108 91.593880,550.030151 91.351173,551.335571 
	C91.109497,552.635437 92.392395,555.052246 93.643578,555.652893 
	C99.282700,558.360291 104.990738,561.125549 110.962120,562.900269 
	C126.859856,567.625000 141.217728,574.914551 152.487457,587.238647 
	C154.913193,589.891296 157.094543,594.340576 156.740372,597.681458 
	C155.421371,610.123596 152.999481,622.448792 150.991547,634.817871 
	C126.215469,634.817871 101.439415,634.817871 75.801971,634.817871 
	C76.336342,633.297363 76.914963,631.425903 77.644073,629.615051 
	C80.924568,621.467651 85.240677,613.580750 87.308640,605.140564 
	C90.000229,594.155029 86.901413,583.655396 78.428009,575.937561 
	C68.233658,566.652100 57.427261,558.014221 46.616512,549.435364 
	C27.167868,534.001953 20.292717,513.763367 23.163343,489.682098 
	C23.333822,488.251923 24.447037,486.185242 25.563810,485.838318 
	C26.575527,485.523987 28.404631,486.937469 29.486988,487.987396 
	C30.777308,489.238983 31.755646,490.854767 32.697823,492.416138 
	C43.034351,509.545776 58.451305,520.832886 75.776024,529.923218 
	C76.945847,530.536987 78.237679,530.930420 79.495399,531.360046 
	C80.258156,531.620605 81.064514,531.753479 83.325371,532.300232 
	C73.488098,519.135681 64.301353,506.867035 62.881817,491.120819 
	C63.322845,490.697021 63.763870,490.273254 64.204895,489.849457 
	C66.346603,491.356964 68.695465,492.642273 70.593231,494.411438 
	C77.836227,501.163635 86.258812,504.216034 96.151993,503.306824 
	C101.525726,502.812958 102.735405,501.060791 99.468979,496.862518 
	C96.154602,492.602661 92.151306,488.811646 88.086784,485.226807 
	C85.498230,482.943756 82.394226,481.111084 79.270683,479.591827 
	C65.797539,473.038635 61.159264,461.194855 60.079533,447.429932 
	C59.697826,442.563751 60.575542,437.598755 61.375492,432.348389 
	C62.259872,431.991882 62.647034,431.965820 63.034203,431.939758 
z"/>
<path fill="#FE9E2D" opacity="1.000000" stroke="none" 
	d="
M151.454803,634.895447 
	C152.999481,622.448792 155.421371,610.123596 156.740372,597.681458 
	C157.094543,594.340576 154.913193,589.891296 152.487457,587.238647 
	C141.217728,574.914551 126.859856,567.625000 110.962120,562.900269 
	C104.990738,561.125549 99.282700,558.360291 93.643578,555.652893 
	C92.392395,555.052246 91.109497,552.635437 91.351173,551.335571 
	C91.593880,550.030151 93.638565,548.248108 95.037109,548.108032 
	C101.452904,547.465332 107.922760,547.384216 114.365555,546.979492 
	C117.782707,546.764832 121.184235,546.301575 124.592812,545.950562 
	C124.864586,545.487427 125.136353,545.024292 125.408127,544.561157 
	C123.945602,542.871521 122.685532,540.933472 120.979439,539.542603 
	C117.138123,536.411011 112.797592,533.843018 109.227692,530.448792 
	C107.584366,528.886353 107.274277,525.921631 106.359650,523.592773 
	C108.487564,523.437866 110.645622,522.994324 112.734596,523.212341 
	C114.676514,523.415161 116.578079,524.234924 118.439804,524.935974 
	C127.598442,528.384766 136.865494,528.351990 146.647430,525.850220 
	C157.404007,535.025085 168.225098,543.795410 177.927505,553.665405 
	C186.600922,562.488525 194.354584,572.281616 201.941132,582.089966 
	C210.669418,593.374390 212.818695,606.325928 209.784149,620.230530 
	C208.765594,624.897644 208.111252,629.644165 207.124817,634.726440 
	C201.057632,635.117798 195.155960,635.168640 189.254517,635.149841 
	C176.808975,635.110229 164.363556,635.034119 151.454803,634.895447 
z"/>
<path fill="#D75157" opacity="1.000000" stroke="none" 
	d="
M62.968300,431.556458 
	C62.647034,431.965820 62.259872,431.991882 61.584007,432.007355 
	C60.513813,428.026520 57.592148,428.754730 55.044041,429.398315 
	C51.665943,430.251526 48.441360,432.069824 45.047642,432.394257 
	C42.178448,432.668549 38.099819,432.347961 36.513199,430.557068 
	C34.958488,428.802216 35.314911,424.749603 35.868462,421.907196 
	C36.388210,419.238312 37.974823,416.627563 39.600773,414.355316 
	C42.886307,409.763702 41.651852,406.065033 38.097889,402.422607 
	C36.131027,400.406769 34.171253,398.324066 32.578632,396.015961 
	C29.564568,391.647766 30.743486,388.098053 35.586647,386.117889 
	C46.707558,381.571136 46.707550,381.571106 45.149960,369.535309 
	C44.230965,362.434113 49.670319,357.818390 56.307159,361.038055 
	C61.368465,363.493408 65.539642,367.820160 70.018929,371.423645 
	C72.324089,373.278076 74.163162,375.980194 76.735519,377.138031 
	C78.397423,377.886078 81.006294,376.530182 83.454872,375.846771 
	C83.784950,375.824524 83.850960,376.072632 83.977798,376.702026 
	C82.699837,382.095612 79.050919,383.274261 74.891937,379.755707 
	C70.003716,375.620209 65.629433,370.817200 60.460495,367.098419 
	C57.817238,365.196777 53.958717,364.821930 50.565895,364.285095 
	C50.003979,364.196167 48.588085,366.752899 48.335106,368.219513 
	C48.070141,369.755585 48.914738,371.446564 48.957527,373.078125 
	C49.252293,384.318176 48.808308,384.947296 38.462410,388.926239 
	C34.522247,390.441650 33.656929,393.584381 36.436703,396.861359 
	C37.715031,398.368347 39.311569,399.607971 40.782154,400.948730 
	C45.727882,405.457794 46.252270,410.416199 42.552639,415.982422 
	C41.379032,417.748169 40.331352,419.697083 39.724567,421.712311 
	C39.110924,423.750244 39.114906,425.974091 38.848328,428.116516 
	C41.451736,428.379608 44.120857,429.122894 46.641060,428.778015 
	C49.466255,428.391388 52.100178,426.767181 54.919178,426.137360 
	C59.056107,425.213043 62.506096,425.913452 62.968300,431.556458 
z"/>
<path fill="#FE9E2B" opacity="1.000000" stroke="none" 
	d="
M110.975609,408.094269 
	C124.169853,412.841431 137.363968,417.588959 150.558929,422.334137 
	C151.028992,422.503174 151.496918,422.705811 151.983780,422.796387 
	C158.589951,424.024933 161.855042,421.821320 160.818741,415.300537 
	C159.475082,406.845642 156.894058,398.568695 154.571274,390.292175 
	C150.151962,374.545258 146.827377,358.623505 148.101944,342.183289 
	C149.388062,325.594513 155.836990,310.718506 164.787689,296.904449 
	C167.625977,292.523987 171.628098,293.031158 173.808014,298.124939 
	C178.436691,308.940704 182.594635,319.956970 187.127960,330.814880 
	C191.601028,341.528442 195.941986,352.322540 201.033112,362.743134 
	C204.056870,368.932129 210.212448,371.838776 216.861328,372.865387 
	C226.655182,374.377625 232.064224,368.836121 234.045166,356.761230 
	C235.855438,345.726593 234.681335,334.949982 232.567291,324.155396 
	C232.414307,323.374207 232.364792,322.572754 232.247040,321.617279 
	C239.923401,318.734894 244.347031,327.554443 252.829071,326.533081 
	C251.189453,321.546600 250.017731,316.850342 248.100204,312.481445 
	C246.311798,308.406677 244.032867,304.463165 241.438202,300.842957 
	C235.175156,292.104401 236.151947,283.176880 239.983017,273.976929 
	C243.792267,264.829376 247.482300,255.631760 251.350571,246.509506 
	C252.427368,243.970123 253.950912,241.620193 255.269516,239.183350 
	C256.823517,241.401367 258.784149,243.438156 259.866425,245.866425 
	C267.700439,263.442932 275.307587,281.120422 283.091034,298.719727 
	C286.867493,307.258789 291.711884,315.083466 301.087036,318.340668 
	C303.944733,319.333527 308.500519,320.011597 310.194122,318.499359 
	C311.896088,316.979675 311.196014,312.549927 311.172028,309.398315 
	C311.157227,307.453156 310.214233,305.527710 310.088715,303.567749 
	C309.906586,300.724060 311.593292,299.551910 314.241791,300.274872 
	C316.469391,300.882935 318.766113,301.604889 320.718292,302.792480 
	C329.873718,308.362091 342.820892,307.823883 348.941437,294.509644 
	C354.101379,283.284973 355.583374,271.341705 357.990814,259.530701 
	C359.775177,250.776596 361.165497,241.914948 363.483459,233.303650 
	C366.406677,222.443542 373.585297,214.446381 382.558167,207.939804 
	C387.798676,204.139709 392.848145,200.061966 398.231506,196.481979 
	C399.775024,195.455521 402.183136,195.729202 404.194824,195.406708 
	C404.264618,197.297592 404.932739,199.420792 404.303925,201.040421 
	C401.011322,209.520874 396.742371,217.672516 394.054535,226.324219 
	C391.020905,236.088974 389.229156,246.246704 387.040253,256.264771 
	C384.844177,266.315613 385.888184,276.168030 390.101440,285.487091 
	C391.910034,289.487396 394.078491,293.947357 397.389740,296.511810 
	C403.608643,301.328156 410.432526,305.721375 417.638489,308.814178 
	C426.572723,312.648712 434.433228,309.028961 441.130798,302.461334 
	C442.290314,301.324310 444.199615,300.951965 445.762604,300.226410 
	C446.515991,301.940308 447.686493,303.595520 447.937408,305.380066 
	C448.489380,309.305878 448.636749,313.293976 448.838501,317.262268 
	C449.085083,322.112885 452.049713,321.619476 455.021790,320.231964 
	C456.762604,319.419250 458.456940,318.053467 459.612976,316.516022 
	C466.632935,307.180054 471.670166,297.081268 471.001740,284.932068 
	C470.935242,283.723816 471.350555,282.489075 471.743408,279.984131 
	C481.139954,289.842468 487.081116,300.486237 488.015991,312.625732 
	C488.926392,324.447784 487.267548,336.467682 486.693970,349.363495 
	C490.579498,346.341095 493.959381,343.558563 497.504822,341.005951 
	C500.042145,339.179199 502.702057,337.455719 505.506348,336.097046 
	C506.771545,335.484039 509.135803,335.237610 509.891663,335.970032 
	C510.780701,336.831543 511.055237,339.161621 510.559204,340.458008 
	C509.195709,344.021484 506.808746,347.230652 505.705170,350.847992 
	C503.787720,357.132874 502.413757,363.595123 501.083710,370.039093 
	C500.772858,371.545197 501.446198,373.302032 501.847900,374.897858 
	C502.732422,378.412048 504.777893,378.968170 507.116486,376.326172 
	C511.512634,371.359650 515.789612,366.273590 519.863281,361.040375 
	C522.709167,357.384369 525.272034,357.063080 528.254089,360.695496 
	C529.096313,361.721405 530.080933,362.640350 531.063538,363.539124 
	C533.407349,365.682770 535.808777,365.748352 537.063477,362.662079 
	C538.405945,359.359680 539.929443,355.756622 539.848572,352.320679 
	C539.614868,342.391388 538.423645,332.488251 538.000427,322.558136 
	C537.808228,318.048492 537.838013,313.305481 539.022095,309.014618 
	C540.712097,302.889954 543.555054,297.083496 547.192810,291.056854 
	C547.789307,293.907379 548.745300,296.735992 548.920471,299.612152 
	C549.697083,312.363892 554.497986,323.790039 560.582092,334.700775 
	C561.486938,336.323395 565.000488,337.650299 567.007751,337.316040 
	C583.243896,334.612030 588.550903,318.802917 586.572388,305.350067 
	C585.946106,301.092072 584.803833,296.911621 584.099915,292.662170 
	C583.933167,291.655701 584.256042,290.071320 584.948547,289.562775 
	C585.606018,289.079987 587.414795,289.240417 588.080322,289.833191 
	C596.731079,297.539093 607.101196,304.037170 611.390747,315.305389 
	C614.354004,323.089752 615.330261,331.656830 616.925293,339.926025 
	C617.895325,344.954987 618.353455,350.082611 618.613525,355.591187 
	C616.079346,355.680511 613.944580,354.963318 611.875061,355.118073 
	C609.884827,355.266907 607.962097,356.318176 606.009766,356.972900 
	C605.632202,357.032135 605.254700,357.091339 604.219360,357.130249 
	C602.717468,358.078644 601.873352,359.047333 601.029236,360.016052 
	C601.029236,360.016052 601.008545,360.000977 600.788635,360.113983 
	C600.291809,360.424591 600.109070,360.687653 600.020630,361.016174 
	C600.020630,361.016174 600.000000,361.006104 599.652832,361.043427 
	C598.404785,361.462891 597.335388,361.649963 596.630615,362.259033 
	C592.254944,366.040649 587.836548,369.242340 581.954956,365.047180 
	C581.735291,364.890503 581.313538,365.017242 580.985962,365.011902 
	C580.985962,365.011902 581.000000,365.000732 580.995972,364.638336 
	C578.886414,362.128082 576.914917,359.824097 574.640747,357.872681 
	C571.909729,355.529205 568.333069,353.253845 565.294983,356.130981 
	C562.788086,358.505188 560.777954,362.230957 560.182434,365.643127 
	C558.310059,376.370056 563.719482,384.298279 571.216187,391.289886 
	C572.217590,392.223846 572.691162,395.219666 571.968445,396.253448 
	C568.400208,401.357330 564.286621,406.075653 560.481873,411.019592 
	C556.600647,416.062897 551.977905,420.788544 549.269470,426.418091 
	C545.811340,433.605865 542.337402,439.943817 534.378784,443.058380 
	C532.157715,443.927582 530.800720,447.004791 529.047302,449.069092 
	C529.047302,449.069092 529.009399,448.999237 528.640381,449.008636 
	C527.156189,449.893158 525.715576,450.555634 524.981201,451.679565 
	C521.417603,457.133606 518.043335,462.711395 514.688049,468.106873 
	C508.714905,465.098022 508.205750,461.373749 510.599915,456.807617 
	C511.527802,455.037964 512.473938,453.265472 513.227417,451.419067 
	C515.553528,445.718842 513.136169,437.361389 508.188904,435.309235 
	C503.058258,433.181030 497.613647,431.823547 492.404022,429.868622 
	C485.326630,427.212830 477.571106,425.294678 477.672455,415.097961 
	C477.695862,412.741455 476.163055,409.627136 474.317596,408.127808 
	C467.689270,402.742645 460.470428,398.089844 453.759918,392.798645 
	C447.056671,387.513184 438.364197,383.842834 439.502319,372.369598 
	C439.829437,369.072235 438.909515,363.008026 432.860779,362.091644 
	C432.881287,362.046783 432.907379,362.141907 432.819519,361.881165 
	C432.424347,361.440308 432.117035,361.260254 431.595673,360.976868 
	C431.126678,360.653381 430.990540,360.375031 430.985870,359.657623 
	C429.472229,357.926788 427.945984,356.576904 426.170715,355.217041 
	C425.586761,354.866547 425.251862,354.526001 424.916229,353.817810 
	C421.432007,351.274719 418.069977,347.510834 414.441284,347.233185 
	C405.008759,346.511536 395.384491,346.659851 385.978638,347.719971 
	C377.795990,348.642212 370.639832,352.534943 365.904449,359.932220 
	C365.179749,361.064301 363.238953,361.417908 361.870483,362.083496 
	C361.880341,362.035461 361.911896,362.128387 361.830170,361.876648 
	C361.456116,361.445221 361.163818,361.265503 360.921265,361.093018 
	C360.971008,361.100250 360.881287,361.145691 360.871582,360.786316 
	C359.894867,359.962616 358.927917,359.498260 357.981140,359.017822 
	C358.001373,359.001740 357.968658,359.042725 357.948486,358.687988 
	C353.578339,352.214447 346.994415,350.262726 340.172363,350.181671 
	C333.470856,350.101990 326.527039,350.610809 320.093933,352.353851 
	C310.306458,355.005798 302.925659,361.121796 298.545807,370.747375 
	C294.830231,378.913025 296.911987,388.194916 292.325317,396.422089 
	C289.874878,400.817474 289.384338,406.005524 283.733398,407.897186 
	C282.220642,408.403625 280.753906,409.203888 279.442322,410.121277 
	C277.049896,411.794647 273.052277,411.784973 273.021149,416.029541 
	C273.021149,416.029541 272.996246,416.009521 272.788330,416.110779 
	C272.301849,416.403198 272.109741,416.659210 272.004120,416.980133 
	C272.004120,416.980133 271.618530,417.080688 271.052307,417.087219 
	C269.025391,418.765442 267.564667,420.437073 266.103943,422.108734 
	C266.103943,422.108734 266.026367,422.091370 265.798096,422.218689 
	C265.382996,422.899017 265.196136,423.452057 265.009277,424.005066 
	C265.009277,424.005066 265.000000,424.000000 264.658112,424.036285 
	C261.876038,427.048676 259.435883,430.024750 256.995697,433.000854 
	C256.995697,433.000854 257.000000,433.000000 256.631287,433.002502 
	C255.191544,433.650421 253.772018,434.048584 253.108841,434.983368 
	C249.957382,439.425476 245.920151,441.440155 240.376587,441.081573 
	C235.078186,440.738831 229.730865,441.207367 224.421722,440.960602 
	C218.682114,440.693848 215.039749,444.309235 211.904053,447.987061 
	C208.448425,452.040192 209.899719,457.249237 213.511200,461.219055 
	C217.251160,465.330139 220.524780,469.929413 223.494110,474.635834 
	C224.308136,475.926086 224.010544,478.965424 222.996719,480.169739 
	C219.606995,484.196259 219.779419,488.801666 220.161819,493.397003 
	C220.264862,494.635498 222.155884,495.725220 223.226196,496.883240 
	C223.226181,496.883240 223.633301,496.917480 223.941025,497.186035 
	C224.458313,497.720856 224.728867,497.889038 225.060440,497.959106 
	C225.060440,497.959106 224.996887,497.948669 225.084366,498.317566 
	C227.119537,498.939941 229.264114,499.848999 230.980865,499.333466 
	C238.430267,497.096497 241.365463,498.904053 244.041504,506.388885 
	C246.394226,512.969421 245.993057,519.473694 244.841660,525.965881 
	C244.258850,529.252136 242.670853,533.288696 238.298233,532.863098 
	C228.779633,531.936890 220.258331,528.949585 215.207626,519.728882 
	C214.148117,517.794617 211.705429,516.618042 209.900116,515.092285 
	C209.900116,515.092285 210.003113,515.009705 209.938736,514.703613 
	C205.560669,511.452454 201.239227,508.518555 196.935669,505.558685 
	C193.290192,503.051453 189.665405,500.514099 186.031464,497.990051 
	C186.031464,497.990051 185.999985,498.003937 185.977890,497.690979 
	C185.604797,496.936676 185.253815,496.495361 184.902832,496.054047 
	C184.902817,496.054047 184.983215,496.078827 184.969345,495.730408 
	C183.934830,494.277527 182.914185,493.173035 181.893539,492.068542 
	C181.893539,492.068542 181.993393,492.075928 181.945343,491.728119 
	C178.673782,484.964844 174.103485,479.784485 167.892181,476.109100 
	C167.892181,476.109100 168.000000,476.000000 167.948578,475.688507 
	C164.448166,470.271912 161.097977,465.095490 157.493134,460.102936 
	C156.333679,458.497192 154.502838,457.376221 152.979126,456.033447 
	C152.317947,455.299500 151.656769,454.565521 150.949142,453.163330 
	C149.239670,451.029144 147.576645,449.563171 145.913605,448.097229 
	C145.913605,448.097229 145.986160,448.002106 145.966522,447.675232 
	C142.245636,440.767090 137.408051,435.449585 129.990936,433.000763 
	C129.664536,432.934113 129.393967,432.773468 129.051468,431.952515 
	C126.606293,429.262756 124.288895,427.139252 121.971497,425.015747 
	C121.971504,425.015747 121.997932,424.997253 121.998077,424.643921 
	C119.647446,421.880890 117.296661,419.471191 114.945892,417.061462 
	C114.320663,416.593231 113.695412,416.124969 113.202316,415.144379 
	C112.548187,412.452789 111.761894,410.273529 110.975609,408.094269 
z"/>
<path fill="#FDFBF8" opacity="1.000000" stroke="none" 
	d="
M424.916931,354.185486 
	C425.251862,354.526001 425.586761,354.866547 426.304840,355.532349 
	C428.116425,357.251251 429.544861,358.644897 430.973267,360.038544 
	C430.990540,360.375031 431.126678,360.653381 431.680908,361.239624 
	C432.289246,361.784424 432.598328,361.963165 432.907379,362.141907 
	C432.907379,362.141907 432.881287,362.046783 432.912262,362.441650 
	C437.474945,369.488617 439.300781,376.768890 438.034668,384.766998 
	C432.756073,394.553741 423.799561,398.837585 413.459442,400.447144 
	C403.645782,401.974762 393.985443,400.784485 384.251770,396.375793 
	C382.400208,394.109253 381.208496,392.108521 379.761932,390.313080 
	C373.657806,382.736877 365.890869,381.940491 359.520874,389.276642 
	C356.011688,393.318054 354.353851,398.967041 351.496521,403.968292 
	C343.563293,408.007141 335.369354,407.154724 327.251221,407.366486 
	C313.707397,407.719727 303.906342,402.185608 297.992859,389.477539 
	C295.434387,368.586945 309.957031,355.298401 326.296509,352.888916 
	C337.730347,351.202789 348.371002,352.032166 357.968658,359.042725 
	C357.968658,359.042725 358.001373,359.001740 358.111755,359.306519 
	C359.108521,360.122772 359.994904,360.634216 360.881287,361.145691 
	C360.881287,361.145691 360.971008,361.100250 360.995209,361.352020 
	C361.316895,361.778656 361.614410,361.953522 361.911896,362.128387 
	C361.911896,362.128387 361.880341,362.035461 361.936340,362.394592 
	C363.809875,365.262543 365.230896,364.889404 366.862701,362.401703 
	C368.293671,360.220154 369.805115,357.752319 371.916168,356.409546 
	C389.094666,345.482605 406.782471,343.746368 424.916931,354.185486 
M409.088776,373.375122 
	C408.359467,367.368073 405.007019,363.987305 398.890747,363.090942 
	C392.320526,362.128052 385.673615,364.696411 384.169891,369.664001 
	C383.425995,372.121460 383.842560,375.771790 385.247742,377.867462 
	C388.420715,382.599640 393.704834,383.479980 399.054382,382.570892 
	C403.881256,381.750610 407.870331,379.539825 409.088776,373.375122 
M331.970703,366.534973 
	C329.828766,367.373627 327.419800,367.834656 325.596619,369.123993 
	C320.761688,372.543427 320.367340,378.958771 324.444550,382.993225 
	C327.995300,386.506683 335.114655,387.473267 339.844543,384.983063 
	C343.707581,382.949310 345.909271,379.892151 345.330627,375.300873 
	C344.733795,370.565430 341.400452,367.782288 334.698364,366.464935 
	C334.057373,366.338959 333.384918,366.373230 331.970703,366.534973 
z"/>
<path fill="#0A0203" opacity="1.000000" stroke="none" 
	d="
M373.923218,434.016113 
	C383.034485,434.637512 392.153259,435.165771 401.255157,435.902771 
	C413.981659,436.933197 426.727753,437.856079 439.394135,439.407410 
	C442.955597,439.843597 446.837433,441.658875 449.565216,444.010071 
	C454.134308,447.948303 452.421356,454.359650 446.619598,456.153473 
	C443.811615,457.021729 440.704437,457.440979 437.771454,457.293365 
	C426.990906,456.751068 416.233368,455.757355 405.453766,455.186951 
	C398.012939,454.793274 390.548828,454.859283 383.097321,454.643707 
	C373.292297,454.360016 363.490112,453.766083 353.685394,453.735107 
	C341.585663,453.696899 329.483368,454.051880 317.384521,454.335480 
	C312.235474,454.456177 307.065765,455.233093 301.958527,454.899231 
	C299.666321,454.749420 296.392731,453.077820 295.604462,451.227600 
	C294.854706,449.467896 296.271637,446.250244 297.597748,444.242950 
	C301.342682,438.574402 306.566406,436.514618 313.685638,436.720032 
	C331.619690,437.237457 349.627869,437.783142 368.200867,434.197876 
	C370.634064,434.064636 372.278656,434.040405 373.923218,434.016113 
z"/>
<path fill="#FC9717" opacity="1.000000" stroke="none" 
	d="
M374.167053,433.752258 
	C372.278656,434.040405 370.634064,434.064636 368.591827,434.014526 
	C364.418488,431.031921 360.070526,428.620789 357.007355,425.093750 
	C352.876251,420.337158 351.729614,414.151398 351.918640,407.015991 
	C351.911499,405.427521 351.886414,404.659393 351.861328,403.891266 
	C354.353851,398.967041 356.011688,393.318054 359.520874,389.276642 
	C365.890869,381.940491 373.657806,382.736877 379.761932,390.313080 
	C381.208496,392.108521 382.400208,394.109253 383.879333,396.275269 
	C387.129181,405.430939 388.666473,414.369385 385.027496,423.523651 
	C383.036407,428.532562 380.020660,432.372345 374.167053,433.752258 
z"/>
<path fill="#F79744" opacity="1.000000" stroke="none" 
	d="
M438.398132,384.811951 
	C439.300781,376.768890 437.474945,369.488617 432.891754,362.486511 
	C438.909515,363.008026 439.829437,369.072235 439.502319,372.369598 
	C438.364197,383.842834 447.056671,387.513184 453.759918,392.798645 
	C460.470428,398.089844 467.689270,402.742645 474.317596,408.127808 
	C476.163055,409.627136 477.695862,412.741455 477.672455,415.097961 
	C477.571106,425.294678 485.326630,427.212830 492.404022,429.868622 
	C497.613647,431.823547 503.058258,433.181030 508.188904,435.309235 
	C513.136169,437.361389 515.553528,445.718842 513.227417,451.419067 
	C512.473938,453.265472 511.527802,455.037964 510.599915,456.807617 
	C508.205750,461.373749 508.714905,465.098022 514.688049,468.106873 
	C518.043335,462.711395 521.417603,457.133606 524.981201,451.679565 
	C525.715576,450.555634 527.156189,449.893158 528.671143,449.033813 
	C525.081360,455.468353 521.347595,462.067871 516.993835,468.229309 
	C514.830933,471.290192 511.622986,470.679077 509.525757,467.615509 
	C506.703369,463.492676 505.956818,459.262665 508.926422,454.613556 
	C515.016724,445.078857 512.941528,439.272888 502.226868,435.184296 
	C496.021790,432.816528 489.716248,430.706360 483.548859,428.247223 
	C478.201782,426.115173 475.155029,422.456482 474.855316,416.200470 
	C474.726257,413.507019 472.695068,410.199921 470.507904,408.437500 
	C462.917206,402.320770 454.875946,396.763519 447.012817,390.984283 
	C444.252411,388.955414 441.511444,386.900116 438.398132,384.811951 
z"/>
<path fill="#F79744" opacity="1.000000" stroke="none" 
	d="
M529.391541,449.008484 
	C530.800720,447.004791 532.157715,443.927582 534.378784,443.058380 
	C542.337402,439.943817 545.811340,433.605865 549.269470,426.418091 
	C551.977905,420.788544 556.600647,416.062897 560.481873,411.019592 
	C564.286621,406.075653 568.400208,401.357330 571.968445,396.253448 
	C572.691162,395.219666 572.217590,392.223846 571.216187,391.289886 
	C563.719482,384.298279 558.310059,376.370056 560.182434,365.643127 
	C560.777954,362.230957 562.788086,358.505188 565.294983,356.130981 
	C568.333069,353.253845 571.909729,355.529205 574.640747,357.872681 
	C576.914917,359.824097 578.886414,362.128082 580.989868,364.646179 
	C577.566650,362.763733 574.156860,360.493683 570.721191,358.263367 
	C567.363647,356.083740 565.264282,357.424744 563.562500,360.642578 
	C560.088074,367.212128 562.089172,378.271576 568.074402,384.699829 
	C576.936890,394.218292 577.039185,394.296692 569.093872,404.661072 
	C565.775085,408.990234 561.648743,412.704926 558.380432,417.066833 
	C555.047974,421.514374 551.744995,426.156128 549.485596,431.187286 
	C547.208313,436.258362 544.411621,440.326355 539.464722,442.969727 
	C536.113770,444.760345 532.971436,446.941406 529.391541,449.008484 
z"/>
<path fill="#F79744" opacity="1.000000" stroke="none" 
	d="
M357.948486,358.687988 
	C348.371002,352.032166 337.730347,351.202789 326.296509,352.888916 
	C309.957031,355.298401 295.434387,368.586945 297.752991,389.634094 
	C297.299500,390.767944 297.094208,391.285522 296.888916,391.803070 
	C295.644073,394.429169 293.193237,397.160095 293.410461,399.659088 
	C293.836090,404.556244 291.236511,406.647766 287.780609,408.527740 
	C283.130310,411.057465 278.405518,413.450134 273.366913,415.965576 
	C273.052277,411.784973 277.049896,411.794647 279.442322,410.121277 
	C280.753906,409.203888 282.220642,408.403625 283.733398,407.897186 
	C289.384338,406.005524 289.874878,400.817474 292.325317,396.422089 
	C296.911987,388.194916 294.830231,378.913025 298.545807,370.747375 
	C302.925659,361.121796 310.306458,355.005798 320.093933,352.353851 
	C326.527039,350.610809 333.470856,350.101990 340.172363,350.181671 
	C346.994415,350.262726 353.578339,352.214447 357.948486,358.687988 
z"/>
<path fill="#F79744" opacity="1.000000" stroke="none" 
	d="
M223.151978,496.482330 
	C222.155884,495.725220 220.264862,494.635498 220.161819,493.397003 
	C219.779419,488.801666 219.606995,484.196259 222.996719,480.169739 
	C224.010544,478.965424 224.308136,475.926086 223.494110,474.635834 
	C220.524780,469.929413 217.251160,465.330139 213.511200,461.219055 
	C209.899719,457.249237 208.448425,452.040192 211.904053,447.987061 
	C215.039749,444.309235 218.682114,440.693848 224.421722,440.960602 
	C229.730865,441.207367 235.078186,440.738831 240.376587,441.081573 
	C245.920151,441.440155 249.957382,439.425476 253.108841,434.983368 
	C253.772018,434.048584 255.191544,433.650421 256.631195,433.000244 
	C253.525467,439.018127 249.219452,443.595734 241.403717,443.083923 
	C236.761856,442.779907 232.072632,442.776978 227.430405,443.060211 
	C224.673889,443.228363 221.737885,443.738800 219.280273,444.921631 
	C211.118057,448.850067 210.439468,454.657501 216.422119,461.208191 
	C219.848541,464.959961 222.902420,469.292694 225.049088,473.868195 
	C226.081161,476.068054 225.343124,479.796844 224.139557,482.198181 
	C221.809143,486.847809 221.182800,491.276855 223.151978,496.482330 
z"/>
<path fill="#F79744" opacity="1.000000" stroke="none" 
	d="
M209.947449,515.436523 
	C211.705429,516.618042 214.148117,517.794617 215.207626,519.728882 
	C220.258331,528.949585 228.779633,531.936890 238.298233,532.863098 
	C242.670853,533.288696 244.258850,529.252136 244.841660,525.965881 
	C245.993057,519.473694 246.394226,512.969421 244.041504,506.388885 
	C241.365463,498.904053 238.430267,497.096497 230.980865,499.333466 
	C229.264114,499.848999 227.119537,498.939941 225.113815,498.304443 
	C227.785187,497.348846 230.787109,497.304962 233.178482,496.074524 
	C236.553314,494.337982 239.364426,494.821075 240.963806,497.716644 
	C243.388351,502.106049 245.692001,506.783356 246.780869,511.623199 
	C247.744003,515.904297 247.101837,520.578674 246.946991,525.071838 
	C246.693451,532.428406 241.847458,535.572083 234.449219,534.703857 
	C222.286743,533.276428 215.396576,525.632751 209.947449,515.436523 
z"/>
<path fill="#C8585F" opacity="1.000000" stroke="none" 
	d="
M297.051697,392.124176 
	C297.094208,391.285522 297.299500,390.767944 297.744629,390.093842 
	C303.906342,402.185608 313.707397,407.719727 327.251221,407.366486 
	C335.369354,407.154724 343.563293,408.007141 351.496521,403.968292 
	C351.886414,404.659393 351.911499,405.427521 351.856750,406.573578 
	C339.175354,409.212982 326.566772,410.335480 313.945251,407.107483 
	C305.897949,405.049408 301.268402,399.070831 297.051697,392.124176 
z"/>
<path fill="#F79744" opacity="1.000000" stroke="none" 
	d="
M186.070892,498.331665 
	C189.665405,500.514099 193.290192,503.051453 196.935669,505.558685 
	C201.239227,508.518555 205.560669,511.452454 209.892303,514.750977 
	C200.988083,511.059692 192.295364,506.682617 186.070892,498.331665 
z"/>
<path fill="#F79744" opacity="1.000000" stroke="none" 
	d="
M153.028458,456.376984 
	C154.502838,457.376221 156.333679,458.497192 157.493134,460.102936 
	C161.097977,465.095490 164.448166,470.271912 167.894119,475.742371 
	C166.385910,474.906097 164.506897,473.967346 163.443619,472.455078 
	C159.832870,467.319519 156.510376,461.981323 153.028458,456.376984 
z"/>
<path fill="#F79744" opacity="1.000000" stroke="none" 
	d="
M110.657898,407.924103 
	C111.761894,410.273529 112.548187,412.452789 113.133774,414.839600 
	C109.016106,412.496094 105.070251,409.986633 101.232841,407.321014 
	C100.898445,407.088715 101.277710,405.829041 101.617081,404.944366 
	C104.719177,405.812744 107.529678,406.783356 110.657898,407.924103 
z"/>
<path fill="#F79744" opacity="1.000000" stroke="none" 
	d="
M581.147949,365.329498 
	C581.313538,365.017242 581.735291,364.890503 581.954956,365.047180 
	C587.836548,369.242340 592.254944,366.040649 596.630615,362.259033 
	C597.335388,361.649963 598.404785,361.462891 599.662720,361.053314 
	C595.479553,369.679840 587.335571,371.691345 581.147949,365.329498 
z"/>
<path fill="#F79744" opacity="1.000000" stroke="none" 
	d="
M167.930542,476.454376 
	C174.103485,479.784485 178.673782,484.964844 181.897858,491.744019 
	C177.255234,487.005005 172.612061,481.902344 167.930542,476.454376 
z"/>
<path fill="#F79744" opacity="1.000000" stroke="none" 
	d="
M130.152588,433.294189 
	C137.408051,435.449585 142.245636,440.767090 145.923309,447.716949 
	C144.575775,446.965851 143.196701,445.904419 141.938095,444.715546 
	C138.038864,441.032288 134.185440,437.300568 130.152588,433.294189 
z"/>
<path fill="#F79744" opacity="1.000000" stroke="none" 
	d="
M606.444702,356.980713 
	C607.962097,356.318176 609.884827,355.266907 611.875061,355.118073 
	C613.944580,354.963318 616.079346,355.680511 618.614868,356.027252 
	C619.657471,357.434570 620.270874,358.831085 620.903870,360.549866 
	C619.532715,360.513184 617.710815,360.588867 616.830200,359.715454 
	C613.938904,356.847961 610.540833,356.620300 606.444702,356.980713 
z"/>
<path fill="#F79744" opacity="1.000000" stroke="none" 
	d="
M257.296814,432.858337 
	C259.435883,430.024750 261.876038,427.048676 264.662079,424.041168 
	C262.537933,426.911804 260.067902,429.813812 257.296814,432.858337 
z"/>
<path fill="#F79744" opacity="1.000000" stroke="none" 
	d="
M115.008240,417.394318 
	C117.296661,419.471191 119.647446,421.880890 121.990906,424.657837 
	C119.679253,422.592407 117.374924,420.159790 115.008240,417.394318 
z"/>
<path fill="#F79744" opacity="1.000000" stroke="none" 
	d="
M122.024307,425.353668 
	C124.288895,427.139252 126.606293,429.262756 128.939133,431.740906 
	C126.662094,429.960907 124.369598,427.826233 122.024307,425.353668 
z"/>
<path fill="#F79744" opacity="1.000000" stroke="none" 
	d="
M266.437836,422.057861 
	C267.564667,420.437073 269.025391,418.765442 270.853577,417.100769 
	C269.737915,418.740845 268.254822,420.373932 266.437836,422.057861 
z"/>
<path fill="#F79744" opacity="1.000000" stroke="none" 
	d="
M145.978317,448.426331 
	C147.576645,449.563171 149.239670,451.029144 150.893387,452.863159 
	C149.270386,451.739349 147.656708,450.247406 145.978317,448.426331 
z"/>
<path fill="#F79744" opacity="1.000000" stroke="none" 
	d="
M181.910522,492.421082 
	C182.914185,493.173035 183.934830,494.277527 184.928802,495.741699 
	C183.910583,494.992126 182.919037,493.882904 181.910522,492.421082 
z"/>
<path fill="#F79744" opacity="1.000000" stroke="none" 
	d="
M601.356201,359.961670 
	C601.873352,359.047333 602.717468,358.078644 603.932617,357.134094 
	C603.430115,358.074585 602.556702,358.990936 601.356201,359.961670 
z"/>
<path fill="#F79744" opacity="1.000000" stroke="none" 
	d="
M184.925629,496.350220 
	C185.253815,496.495361 185.604797,496.936676 185.982880,497.674561 
	C185.656113,497.529541 185.302277,497.087952 184.925629,496.350220 
z"/>
<path fill="#F79744" opacity="1.000000" stroke="none" 
	d="
M265.253754,423.839264 
	C265.196136,423.452057 265.382996,422.899017 265.834045,422.201660 
	C265.898224,422.596008 265.698242,423.134735 265.253754,423.839264 
z"/>
<path fill="#F79744" opacity="1.000000" stroke="none" 
	d="
M600.248413,360.922028 
	C600.109070,360.687653 600.291809,360.424591 600.790771,360.125671 
	C600.941406,360.364014 600.762573,360.631866 600.248413,360.922028 
z"/>
<path fill="#F79744" opacity="1.000000" stroke="none" 
	d="
M224.955261,497.738159 
	C224.728867,497.889038 224.458313,497.720856 224.138245,497.239258 
	C224.365860,497.081635 224.639954,497.246063 224.955261,497.738159 
z"/>
<path fill="#F79744" opacity="1.000000" stroke="none" 
	d="
M272.236816,416.894928 
	C272.109741,416.659210 272.301849,416.403198 272.803040,416.112305 
	C272.947174,416.352905 272.761780,416.618591 272.236816,416.894928 
z"/>
<path fill="#F79744" opacity="1.000000" stroke="none" 
	d="
M424.916229,353.817810 
	C406.782471,343.746368 389.094666,345.482605 371.916168,356.409546 
	C369.805115,357.752319 368.293671,360.220154 366.862701,362.401703 
	C365.230896,364.889404 363.809875,365.262543 361.926453,362.442627 
	C363.238953,361.417908 365.179749,361.064301 365.904449,359.932220 
	C370.639832,352.534943 377.795990,348.642212 385.978638,347.719971 
	C395.384491,346.659851 405.008759,346.511536 414.441284,347.233185 
	C418.069977,347.510834 421.432007,351.274719 424.916229,353.817810 
z"/>
<path fill="#F79744" opacity="1.000000" stroke="none" 
	d="
M430.985870,359.657623 
	C429.544861,358.644897 428.116425,357.251251 426.553864,355.542297 
	C427.945984,356.576904 429.472229,357.926788 430.985870,359.657623 
z"/>
<path fill="#F79744" opacity="1.000000" stroke="none" 
	d="
M360.871582,360.786316 
	C359.994904,360.634216 359.108521,360.122772 358.091522,359.322632 
	C358.927917,359.498260 359.894867,359.962616 360.871582,360.786316 
z"/>
<path fill="#F79744" opacity="1.000000" stroke="none" 
	d="
M361.830170,361.876648 
	C361.614410,361.953522 361.316895,361.778656 360.945435,361.344788 
	C361.163818,361.265503 361.456116,361.445221 361.830170,361.876648 
z"/>
<path fill="#F79744" opacity="1.000000" stroke="none" 
	d="
M432.819519,361.881165 
	C432.598328,361.963165 432.289246,361.784424 431.894958,361.342926 
	C432.117035,361.260254 432.424347,361.440308 432.819519,361.881165 
z"/>
<path fill="#080808" opacity="1.000000" stroke="none" 
	d="
M409.061707,373.775330 
	C407.870331,379.539825 403.881256,381.750610 399.054382,382.570892 
	C393.704834,383.479980 388.420715,382.599640 385.247742,377.867462 
	C383.842560,375.771790 383.425995,372.121460 384.169891,369.664001 
	C385.673615,364.696411 392.320526,362.128052 398.890747,363.090942 
	C405.007019,363.987305 408.359467,367.368073 409.061707,373.775330 
z"/>
<path fill="#070707" opacity="1.000000" stroke="none" 
	d="
M332.348877,366.434052 
	C333.384918,366.373230 334.057373,366.338959 334.698364,366.464935 
	C341.400452,367.782288 344.733795,370.565430 345.330627,375.300873 
	C345.909271,379.892151 343.707581,382.949310 339.844543,384.983063 
	C335.114655,387.473267 327.995300,386.506683 324.444550,382.993225 
	C320.367340,378.958771 320.761688,372.543427 325.596619,369.123993 
	C327.419800,367.834656 329.828766,367.373627 332.348877,366.434052 
z"/>
</svg>